<svg id="lineart" xmlns="http://www.w3.org/2000/svg" viewBox="0 0 487.73 410.4"><defs><style>.cls-1{fill:none;stroke:#ffab5f;stroke-miterlimit:10;stroke-width:10px;}.cls-2{fill:#ffe088;}.cls-3{fill:#ffab5f;}</style></defs><path class="cls-1" d="M333.83,389.22l20.66,149.11a13.65,13.65,0,0,1-.91,7.09l-61,147.08c-5.2,12.53,9.12,24.12,20.29,16.44l103.86-71.41a13.58,13.58,0,0,1,4.88-2.09L712,573.57a13.61,13.61,0,0,0,10.69-14.82L697.57,332.2a13.61,13.61,0,0,0-15.68-11.95L345.18,373.9A13.62,13.62,0,0,0,333.83,389.22Z" transform="translate(-240 -306)"/><circle class="cls-2" cx="79" cy="79" r="79"/><circle class="cls-2" cx="204.59" cy="187.21" r="22.59"/><circle class="cls-2" cx="298.66" cy="172.62" r="22.59"/><circle class="cls-2" cx="386.41" cy="154.79" r="22.59"/><path class="cls-3" d="M283.5,353.5c-2-1,79.6,17,79.8,17.51s-61.8,55.49-61.8,55.49l7-39Z" transform="translate(-240 -306)"/></svg>